<svg width="1913" height="862" viewBox="0 0 1913 862" fill="none" xmlns="http://www.w3.org/2000/svg">
<mask id="mask0_374_33" style="mask-type:alpha" maskUnits="userSpaceOnUse" x="0" y="0" width="1920" height="862">
<rect width="1920" height="862" fill="#D9D9D9"/>
</mask>
<g mask="url(#mask0_374_33)">
<path fill-rule="evenodd" clip-rule="evenodd" d="M234 216.059V185.332L174 93.1531L114 185.332L53.9999 93.1531L-6 185.332V216.059L14 246.785L-6 277.512V308.238L53.9999 400.417L114 308.238L174 400.417L234 308.238V277.512L214 246.785L234 216.059ZM33.9999 246.785L3.99999 200.696L53.9999 123.88L104 200.696L73.9999 246.785L104 292.875L53.9999 369.691L3.99999 292.875L33.9999 246.785ZM93.9999 246.785L114 216.059L134 246.785L114 277.512L93.9999 246.785ZM154 246.785L124 200.696L174 123.88L224 200.696L194 246.785L224 292.875L174 369.691L124 292.875L154 246.785ZM-6 123.88L43.9999 47.0635L14 0.973877H33.9999L53.9999 31.7003L73.9999 0.973877H93.9999L63.9999 47.0635L114 123.88L164 47.0635L134 0.973877H154L174 31.7003L194 0.973877H214L184 47.0635L234 123.88V154.606L174 62.4267L114 154.606L53.9999 62.4267L-6 154.606V123.88ZM-6 369.691L43.9999 446.507L14 492.597H33.9999L53.9999 461.87L73.9999 492.597H93.9999L63.9999 446.507L114 369.691L164 446.507L134 492.597H154L174 461.87L194 492.597H214L184 446.507L234 369.691V338.965L174 431.144L114 338.965L53.9999 431.144L-6 338.965V369.691Z" fill="#494949" fill-opacity="0.3"/>
<path fill-rule="evenodd" clip-rule="evenodd" d="M1194 216.059V185.332L1134 93.1531L1074 185.332L1014 93.1531L953.998 185.332V216.059L973.998 246.785L953.998 277.512V308.238L1014 400.417L1074 308.238L1134 400.417L1194 308.238V277.512L1174 246.785L1194 216.059ZM993.998 246.785L963.998 200.696L1014 123.88L1064 200.696L1034 246.785L1064 292.875L1014 369.691L963.998 292.875L993.998 246.785ZM1054 246.785L1074 216.059L1094 246.785L1074 277.512L1054 246.785ZM1114 246.785L1084 200.696L1134 123.88L1184 200.696L1154 246.785L1184 292.875L1134 369.691L1084 292.875L1114 246.785ZM953.998 123.88L1004 47.0635L973.998 0.973877H993.998L1014 31.7003L1034 0.973877H1054L1024 47.0635L1074 123.88L1124 47.0635L1094 0.973877H1114L1134 31.7003L1154 0.973877H1174L1144 47.0635L1194 123.88V154.606L1134 62.4267L1074 154.606L1014 62.4267L953.998 154.606V123.88ZM953.998 369.691L1004 446.507L973.998 492.597H993.998L1014 461.87L1034 492.597H1054L1024 446.507L1074 369.691L1124 446.507L1094 492.597H1114L1134 461.87L1154 492.597H1174L1144 446.507L1194 369.691V338.965L1134 431.144L1074 338.965L1014 431.144L953.998 338.965V369.691Z" fill="#494949" fill-opacity="0.3"/>
<path fill-rule="evenodd" clip-rule="evenodd" d="M714 216.059V185.332L654 93.1531L594 185.332L534 93.1531L474 185.332V216.059L494 246.785L474 277.512V308.238L534 400.417L594 308.238L654 400.417L714 308.238V277.512L694 246.785L714 216.059ZM514 246.785L484 200.696L534 123.88L584 200.696L554 246.785L584 292.875L534 369.691L484 292.875L514 246.785ZM574 246.785L594 216.059L614 246.785L594 277.512L574 246.785ZM634 246.785L604 200.696L654 123.88L704 200.696L674 246.785L704 292.875L654 369.691L604 292.875L634 246.785ZM474 123.88L524 47.0635L494 0.973877H514L534 31.7003L554 0.973877H574L544 47.0635L594 123.88L644 47.0635L614 0.973877H634L654 31.7003L674 0.973877H694L664 47.0635L714 123.88V154.606L654 62.4267L594 154.606L534 62.4267L474 154.606V123.88ZM474 369.691L524 446.507L494 492.597H514L534 461.87L554 492.597H574L544 446.507L594 369.691L644 446.507L614 492.597H634L654 461.87L674 492.597H694L664 446.507L714 369.691V338.965L654 431.144L594 338.965L534 431.144L474 338.965V369.691Z" fill="#494949" fill-opacity="0.3"/>
<path fill-rule="evenodd" clip-rule="evenodd" d="M1674 216.059V185.332L1614 93.1531L1554 185.332L1494 93.1531L1434 185.332V216.059L1454 246.785L1434 277.512V308.238L1494 400.417L1554 308.238L1614 400.417L1674 308.238V277.512L1654 246.785L1674 216.059ZM1474 246.785L1444 200.696L1494 123.88L1544 200.696L1514 246.785L1544 292.875L1494 369.691L1444 292.875L1474 246.785ZM1534 246.785L1554 216.059L1574 246.785L1554 277.512L1534 246.785ZM1594 246.785L1564 200.696L1614 123.88L1664 200.696L1634 246.785L1664 292.875L1614 369.691L1564 292.875L1594 246.785ZM1434 123.88L1484 47.0635L1454 0.973877H1474L1494 31.7003L1514 0.973877H1534L1504 47.0635L1554 123.88L1604 47.0635L1574 0.973877H1594L1614 31.7003L1634 0.973877H1654L1624 47.0635L1674 123.88V154.606L1614 62.4267L1554 154.606L1494 62.4267L1434 154.606V123.88ZM1434 369.691L1484 446.507L1454 492.597H1474L1494 461.87L1514 492.597H1534L1504 446.507L1554 369.691L1604 446.507L1574 492.597H1594L1614 461.87L1634 492.597H1654L1624 446.507L1674 369.691V338.965L1614 431.144L1554 338.965L1494 431.144L1434 338.965V369.691Z" fill="#494949" fill-opacity="0.3"/>
<path fill-rule="evenodd" clip-rule="evenodd" d="M234 707.681V676.955L174 584.775L114 676.955L53.9999 584.775L-6 676.955V707.681L14 738.408L-6 769.134V799.86L53.9999 892.04L114 799.86L174 892.04L234 799.86V769.134L214 738.408L234 707.681ZM33.9999 738.408L3.99999 692.318L53.9999 615.502L104 692.318L73.9999 738.408L104 784.497L53.9999 861.313L3.99999 784.497L33.9999 738.408ZM93.9999 738.408L114 707.681L134 738.408L114 769.134L93.9999 738.408ZM154 738.408L124 692.318L174 615.502L224 692.318L194 738.408L224 784.497L174 861.313L124 784.497L154 738.408ZM-6 615.502L43.9999 538.686L14 492.596H33.9999L53.9999 523.323L73.9999 492.596H93.9999L63.9999 538.686L114 615.502L164 538.686L134 492.596H154L174 523.323L194 492.596H214L184 538.686L234 615.502V646.228L174 554.049L114 646.228L53.9999 554.049L-6 646.228V615.502ZM-6 861.313L43.9999 938.129L14 984.219H33.9999L53.9999 953.493L73.9999 984.219H93.9999L63.9999 938.129L114 861.313L164 938.129L134 984.219H154L174 953.493L194 984.219H214L184 938.129L234 861.313V830.587L174 922.766L114 830.587L53.9999 922.766L-6 830.587V861.313Z" fill="#494949" fill-opacity="0.3"/>
<path fill-rule="evenodd" clip-rule="evenodd" d="M1194 707.681V676.955L1134 584.775L1074 676.955L1014 584.775L953.998 676.955V707.681L973.998 738.408L953.998 769.134V799.86L1014 892.04L1074 799.86L1134 892.04L1194 799.86V769.134L1174 738.408L1194 707.681ZM993.998 738.408L963.998 692.318L1014 615.502L1064 692.318L1034 738.408L1064 784.497L1014 861.313L963.998 784.497L993.998 738.408ZM1054 738.408L1074 707.681L1094 738.408L1074 769.134L1054 738.408ZM1114 738.408L1084 692.318L1134 615.502L1184 692.318L1154 738.408L1184 784.497L1134 861.313L1084 784.497L1114 738.408ZM953.998 615.502L1004 538.686L973.998 492.596H993.998L1014 523.323L1034 492.596H1054L1024 538.686L1074 615.502L1124 538.686L1094 492.596H1114L1134 523.323L1154 492.596H1174L1144 538.686L1194 615.502V646.228L1134 554.049L1074 646.228L1014 554.049L953.998 646.228V615.502ZM953.998 861.313L1004 938.129L973.998 984.219H993.998L1014 953.493L1034 984.219H1054L1024 938.129L1074 861.313L1124 938.129L1094 984.219H1114L1134 953.493L1154 984.219H1174L1144 938.129L1194 861.313V830.587L1134 922.766L1074 830.587L1014 922.766L953.998 830.587V861.313Z" fill="#494949" fill-opacity="0.3"/>
<path fill-rule="evenodd" clip-rule="evenodd" d="M714 707.681V676.955L654 584.775L594 676.955L534 584.775L474 676.955V707.681L494 738.408L474 769.134V799.86L534 892.04L594 799.86L654 892.04L714 799.86V769.134L694 738.408L714 707.681ZM514 738.408L484 692.318L534 615.502L584 692.318L554 738.408L584 784.497L534 861.313L484 784.497L514 738.408ZM574 738.408L594 707.681L614 738.408L594 769.134L574 738.408ZM634 738.408L604 692.318L654 615.502L704 692.318L674 738.408L704 784.497L654 861.313L604 784.497L634 738.408ZM474 615.502L524 538.686L494 492.596H514L534 523.323L554 492.596H574L544 538.686L594 615.502L644 538.686L614 492.596H634L654 523.323L674 492.596H694L664 538.686L714 615.502V646.228L654 554.049L594 646.228L534 554.049L474 646.228V615.502ZM474 861.313L524 938.129L494 984.219H514L534 953.493L554 984.219H574L544 938.129L594 861.313L644 938.129L614 984.219H634L654 953.493L674 984.219H694L664 938.129L714 861.313V830.587L654 922.766L594 830.587L534 922.766L474 830.587V861.313Z" fill="#494949" fill-opacity="0.3"/>
<path fill-rule="evenodd" clip-rule="evenodd" d="M1674 707.681V676.955L1614 584.775L1554 676.955L1494 584.775L1434 676.955V707.681L1454 738.408L1434 769.134V799.86L1494 892.04L1554 799.86L1614 892.04L1674 799.86V769.134L1654 738.408L1674 707.681ZM1474 738.408L1444 692.318L1494 615.502L1544 692.318L1514 738.408L1544 784.497L1494 861.313L1444 784.497L1474 738.408ZM1534 738.408L1554 707.681L1574 738.408L1554 769.134L1534 738.408ZM1594 738.408L1564 692.318L1614 615.502L1664 692.318L1634 738.408L1664 784.497L1614 861.313L1564 784.497L1594 738.408ZM1434 615.502L1484 538.686L1454 492.596H1474L1494 523.323L1514 492.596H1534L1504 538.686L1554 615.502L1604 538.686L1574 492.596H1594L1614 523.323L1634 492.596H1654L1624 538.686L1674 615.502V646.228L1614 554.049L1554 646.228L1494 554.049L1434 646.228V615.502ZM1434 861.313L1484 938.129L1454 984.219H1474L1494 953.493L1514 984.219H1534L1504 938.129L1554 861.313L1604 938.129L1574 984.219H1594L1614 953.493L1634 984.219H1654L1624 938.129L1674 861.313V830.587L1614 922.766L1554 830.587L1494 922.766L1434 830.587V861.313Z" fill="#494949" fill-opacity="0.3"/>
<path fill-rule="evenodd" clip-rule="evenodd" d="M474 216.059V185.332L414 93.1531L354 185.332L294 93.1531L234 185.332V216.059L254 246.785L234 277.512V308.238L294 400.417L354 308.238L414 400.417L474 308.238V277.512L454 246.785L474 216.059ZM274 246.785L244 200.696L294 123.88L344 200.696L314 246.785L344 292.875L294 369.691L244 292.875L274 246.785ZM334 246.785L354 216.059L374 246.785L354 277.512L334 246.785ZM394 246.785L364 200.696L414 123.88L464 200.696L434 246.785L464 292.875L414 369.691L364 292.875L394 246.785ZM234 123.88L284 47.0635L254 0.973877H274L294 31.7003L314 0.973877H334L304 47.0635L354 123.88L404 47.0635L374 0.973877H394L414 31.7003L434 0.973877H454L424 47.0635L474 123.88V154.606L414 62.4267L354 154.606L294 62.4267L234 154.606V123.88ZM234 369.691L284 446.507L254 492.597H274L294 461.87L314 492.597H334L304 446.507L354 369.691L404 446.507L374 492.597H394L414 461.87L434 492.597H454L424 446.507L474 369.691V338.965L414 431.144L354 338.965L294 431.144L234 338.965V369.691Z" fill="#494949" fill-opacity="0.3"/>
<path fill-rule="evenodd" clip-rule="evenodd" d="M1434 216.059V185.332L1374 93.1531L1314 185.332L1254 93.1531L1194 185.332V216.059L1214 246.785L1194 277.512V308.238L1254 400.417L1314 308.238L1374 400.417L1434 308.238V277.512L1414 246.785L1434 216.059ZM1234 246.785L1204 200.696L1254 123.88L1304 200.696L1274 246.785L1304 292.875L1254 369.691L1204 292.875L1234 246.785ZM1294 246.785L1314 216.059L1334 246.785L1314 277.512L1294 246.785ZM1354 246.785L1324 200.696L1374 123.88L1424 200.696L1394 246.785L1424 292.875L1374 369.691L1324 292.875L1354 246.785ZM1194 123.88L1244 47.0635L1214 0.973877H1234L1254 31.7003L1274 0.973877H1294L1264 47.0635L1314 123.88L1364 47.0635L1334 0.973877H1354L1374 31.7003L1394 0.973877H1414L1384 47.0635L1434 123.88V154.606L1374 62.4267L1314 154.606L1254 62.4267L1194 154.606V123.88ZM1194 369.691L1244 446.507L1214 492.597H1234L1254 461.87L1274 492.597H1294L1264 446.507L1314 369.691L1364 446.507L1334 492.597H1354L1374 461.87L1394 492.597H1414L1384 446.507L1434 369.691V338.965L1374 431.144L1314 338.965L1254 431.144L1194 338.965V369.691Z" fill="#494949" fill-opacity="0.3"/>
<path fill-rule="evenodd" clip-rule="evenodd" d="M954 216.059V185.332L894 93.1531L834 185.332L774 93.1531L714 185.332V216.059L734 246.785L714 277.512V308.238L774 400.417L834 308.238L894 400.417L954 308.238V277.512L934 246.785L954 216.059ZM754 246.785L724 200.696L774 123.88L824 200.696L794 246.785L824 292.875L774 369.691L724 292.875L754 246.785ZM814 246.785L834 216.059L854 246.785L834 277.512L814 246.785ZM874 246.785L844 200.696L894 123.88L944 200.696L914 246.785L944 292.875L894 369.691L844 292.875L874 246.785ZM714 123.88L764 47.0635L734 0.973877H754L774 31.7003L794 0.973877H814L784 47.0635L834 123.88L884 47.0635L854 0.973877H874L894 31.7003L914 0.973877H934L904 47.0635L954 123.88V154.606L894 62.4267L834 154.606L774 62.4267L714 154.606V123.88ZM714 369.691L764 446.507L734 492.597H754L774 461.87L794 492.597H814L784 446.507L834 369.691L884 446.507L854 492.597H874L894 461.87L914 492.597H934L904 446.507L954 369.691V338.965L894 431.144L834 338.965L774 431.144L714 338.965V369.691Z" fill="#494949" fill-opacity="0.3"/>
<path fill-rule="evenodd" clip-rule="evenodd" d="M1914 216.059V185.332L1854 93.1531L1794 185.332L1734 93.1531L1674 185.332V216.059L1694 246.785L1674 277.512V308.238L1734 400.417L1794 308.238L1854 400.417L1914 308.238V277.512L1894 246.785L1914 216.059ZM1714 246.785L1684 200.696L1734 123.88L1784 200.696L1754 246.785L1784 292.875L1734 369.691L1684 292.875L1714 246.785ZM1774 246.785L1794 216.059L1814 246.785L1794 277.512L1774 246.785ZM1834 246.785L1804 200.696L1854 123.88L1904 200.696L1874 246.785L1904 292.875L1854 369.691L1804 292.875L1834 246.785ZM1674 123.88L1724 47.0635L1694 0.973877H1714L1734 31.7003L1754 0.973877H1774L1744 47.0635L1794 123.88L1844 47.0635L1814 0.973877H1834L1854 31.7003L1874 0.973877H1894L1864 47.0635L1914 123.88V154.606L1854 62.4267L1794 154.606L1734 62.4267L1674 154.606V123.88ZM1674 369.691L1724 446.507L1694 492.597H1714L1734 461.87L1754 492.597H1774L1744 446.507L1794 369.691L1844 446.507L1814 492.597H1834L1854 461.87L1874 492.597H1894L1864 446.507L1914 369.691V338.965L1854 431.144L1794 338.965L1734 431.144L1674 338.965V369.691Z" fill="#494949" fill-opacity="0.3"/>
<path fill-rule="evenodd" clip-rule="evenodd" d="M474 707.681V676.955L414 584.775L354 676.955L294 584.775L234 676.955V707.681L254 738.408L234 769.134V799.86L294 892.04L354 799.86L414 892.04L474 799.86V769.134L454 738.408L474 707.681ZM274 738.408L244 692.318L294 615.502L344 692.318L314 738.408L344 784.497L294 861.313L244 784.497L274 738.408ZM334 738.408L354 707.681L374 738.408L354 769.134L334 738.408ZM394 738.408L364 692.318L414 615.502L464 692.318L434 738.408L464 784.497L414 861.313L364 784.497L394 738.408ZM234 615.502L284 538.686L254 492.596H274L294 523.323L314 492.596H334L304 538.686L354 615.502L404 538.686L374 492.596H394L414 523.323L434 492.596H454L424 538.686L474 615.502V646.228L414 554.049L354 646.228L294 554.049L234 646.228V615.502ZM234 861.313L284 938.129L254 984.219H274L294 953.493L314 984.219H334L304 938.129L354 861.313L404 938.129L374 984.219H394L414 953.493L434 984.219H454L424 938.129L474 861.313V830.587L414 922.766L354 830.587L294 922.766L234 830.587V861.313Z" fill="#494949" fill-opacity="0.3"/>
<path fill-rule="evenodd" clip-rule="evenodd" d="M1434 707.681V676.955L1374 584.775L1314 676.955L1254 584.775L1194 676.955V707.681L1214 738.408L1194 769.134V799.86L1254 892.04L1314 799.86L1374 892.04L1434 799.86V769.134L1414 738.408L1434 707.681ZM1234 738.408L1204 692.318L1254 615.502L1304 692.318L1274 738.408L1304 784.497L1254 861.313L1204 784.497L1234 738.408ZM1294 738.408L1314 707.681L1334 738.408L1314 769.134L1294 738.408ZM1354 738.408L1324 692.318L1374 615.502L1424 692.318L1394 738.408L1424 784.497L1374 861.313L1324 784.497L1354 738.408ZM1194 615.502L1244 538.686L1214 492.596H1234L1254 523.323L1274 492.596H1294L1264 538.686L1314 615.502L1364 538.686L1334 492.596H1354L1374 523.323L1394 492.596H1414L1384 538.686L1434 615.502V646.228L1374 554.049L1314 646.228L1254 554.049L1194 646.228V615.502ZM1194 861.313L1244 938.129L1214 984.219H1234L1254 953.493L1274 984.219H1294L1264 938.129L1314 861.313L1364 938.129L1334 984.219H1354L1374 953.493L1394 984.219H1414L1384 938.129L1434 861.313V830.587L1374 922.766L1314 830.587L1254 922.766L1194 830.587V861.313Z" fill="#494949" fill-opacity="0.3"/>
<path fill-rule="evenodd" clip-rule="evenodd" d="M954 707.681V676.955L894 584.775L834 676.955L774 584.775L714 676.955V707.681L734 738.408L714 769.134V799.86L774 892.04L834 799.86L894 892.04L954 799.86V769.134L934 738.408L954 707.681ZM754 738.408L724 692.318L774 615.502L824 692.318L794 738.408L824 784.497L774 861.313L724 784.497L754 738.408ZM814 738.408L834 707.681L854 738.408L834 769.134L814 738.408ZM874 738.408L844 692.318L894 615.502L944 692.318L914 738.408L944 784.497L894 861.313L844 784.497L874 738.408ZM714 615.502L764 538.686L734 492.596H754L774 523.323L794 492.596H814L784 538.686L834 615.502L884 538.686L854 492.596H874L894 523.323L914 492.596H934L904 538.686L954 615.502V646.228L894 554.049L834 646.228L774 554.049L714 646.228V615.502ZM714 861.313L764 938.129L734 984.219H754L774 953.493L794 984.219H814L784 938.129L834 861.313L884 938.129L854 984.219H874L894 953.493L914 984.219H934L904 938.129L954 861.313V830.587L894 922.766L834 830.587L774 922.766L714 830.587V861.313Z" fill="#494949" fill-opacity="0.3"/>
<path fill-rule="evenodd" clip-rule="evenodd" d="M1914 707.681V676.955L1854 584.775L1794 676.955L1734 584.775L1674 676.955V707.681L1694 738.408L1674 769.134V799.86L1734 892.04L1794 799.86L1854 892.04L1914 799.86V769.134L1894 738.408L1914 707.681ZM1714 738.408L1684 692.318L1734 615.502L1784 692.318L1754 738.408L1784 784.497L1734 861.313L1684 784.497L1714 738.408ZM1774 738.408L1794 707.681L1814 738.408L1794 769.134L1774 738.408ZM1834 738.408L1804 692.318L1854 615.502L1904 692.318L1874 738.408L1904 784.497L1854 861.313L1804 784.497L1834 738.408ZM1674 615.502L1724 538.686L1694 492.596H1714L1734 523.323L1754 492.596H1774L1744 538.686L1794 615.502L1844 538.686L1814 492.596H1834L1854 523.323L1874 492.596H1894L1864 538.686L1914 615.502V646.228L1854 554.049L1794 646.228L1734 554.049L1674 646.228V615.502ZM1674 861.313L1724 938.129L1694 984.219H1714L1734 953.493L1754 984.219H1774L1744 938.129L1794 861.313L1844 938.129L1814 984.219H1834L1854 953.493L1874 984.219H1894L1864 938.129L1914 861.313V830.587L1854 922.766L1794 830.587L1734 922.766L1674 830.587V861.313Z" fill="#494949" fill-opacity="0.3"/>
</g>
</svg>
